Motion_pl05
version=1
nRows=12
nColumns=43
inDegrees=yes
endheader
time	pelvis_tilt	pelvis_list	pelvis_rotation	pelvis_tx	pelvis_ty	pelvis_tz	hip_flexion_r	hip_adduction_r	hip_rotation_r	knee_angle_r	ankle_angle_r	subtalar_angle_r	mtp_angle_r	hip_flexion_l	hip_adduction_l	hip_rotation_l	knee_angle_l	ankle_angle_l	subtalar_angle_l	mtp_angle_l	lumbar_extension	lumbar_bending	lumbar_rotation	neck_flexion	neck_lateral_bending	neck_rotation	arm_flex_r	arm_add_r	arm_rot_r	elbow_flex_r	pro_sup_r	wrist_flex_r	wrist_dev_r	hand_finger_flex_r	arm_flex_l	arm_add_l	arm_rot_l	elbow_flex_l	pro_sup_l	wrist_flex_l	wrist_dev_l	hand_finger_flex_l
      1.99250000	     -1.24438784	    -14.31282392	     77.58631691	     -0.05374965	      0.59072217	      0.43923732	     85.57158310	     -2.75002441	     -1.20803141	   -111.81880096	     24.62129274	      5.52735701	     13.20664551	     83.23819119	    -11.15480560	     -5.28732275	   -115.19389168	     20.40849581	      2.99697105	     36.94915575	    -60.86818243	     -0.20637248	      0.42803580	     14.58419970	     -7.04029633	      3.59835215	     81.77851122	    -35.78572216	     48.33185860	     78.52081079	    146.92740106	      3.81464348	      3.71066240	    -38.92106716	     69.96485516	    -33.26224105	     19.89690617	     79.41165996	    126.29035979	     -9.56982238	     -2.16050678	     29.84654990
      1.99500000	     -1.27630806	    -14.43382090	     77.55737987	     -0.05406227	      0.59318372	      0.43915692	     85.37830062	     -2.75170643	     -1.21821575	   -111.33745149	     24.55823827	      5.48427781	     13.12463403	     82.99736042	    -11.13205386	     -5.40676251	   -114.67181809	     20.41207685	      2.99819688	     36.95315364	    -60.73691090	     -0.20182969	      0.42819530	     14.53824838	     -7.05207186	      3.66836923	     81.37879994	    -36.09651098	     48.36500448	     78.54236517	    146.89296512	      3.85608032	      3.73301238	    -38.89304813	     69.46230538	    -33.43822360	     19.80286935	     79.44989388	    126.27424332	     -9.55971771	     -2.15390608	     29.88790353
      1.99750000	     -1.40657270	    -14.41007635	     77.47646533	     -0.05437480	      0.59528378	      0.43864078	     85.14033154	     -2.73016574	     -1.07543640	   -111.05846590	     24.47987497	      5.27009015	     12.83660508	     82.62445102	    -11.07500236	     -5.63171707	   -114.29359849	     20.50684161	      2.90022115	     36.97298569	    -60.65884442	     -0.25364813	      0.29321479	     14.66968520	     -7.13850154	      3.88489981	     80.74276715	    -36.30532681	     48.14752185	     78.67408337	    146.74814642	      3.99741148	      3.85252278	    -38.78066236	     68.57661393	    -33.42091400	     19.16239680	     79.53277469	    126.23630416	     -9.57956763	     -2.09872505	     30.02389452
      2.00000000	     -1.40584628	    -14.47789544	     77.47221398	     -0.05453272	      0.59726742	      0.43842391	     84.95168660	     -2.68802001	     -1.06841250	   -110.71460685	     24.42923383	      5.27763470	     12.80783563	     82.44416367	    -11.03062779	     -5.64473918	   -113.94415402	     20.48626776	      2.90496546	     36.97362290	    -60.48103396	     -0.24086648	      0.28073435	     14.73674490	     -7.12105430	      3.89060386	     80.33005128	    -36.55589372	     48.32654984	     78.57254738	    146.74198272	      4.06538773	      3.84604305	    -38.75727621	     68.10761924	    -33.60834541	     19.25357392	     79.40546225	    126.25678060	     -9.52381243	     -2.08242502	     30.05759270
      2.00250000	     -1.42221137	    -14.58986964	     77.45916581	     -0.05483584	      0.59970153	      0.43831880	     84.73367215	     -2.65253189	     -1.04669468	   -110.24102438	     24.37204261	      5.25687262	     12.74179320	     82.19964184	    -10.97984316	     -5.72721220	   -113.42219537	     20.47025238	      2.89707936	     36.97687162	    -60.34894863	     -0.21251505	      0.28255303	     14.69590674	     -7.11691630	      3.93207627	     79.94012361	    -36.84743300	     48.37714512	     78.56058162	    146.70843565	      4.12827471	      3.85845572	    -38.72920273	     67.56727258	    -33.80737623	     19.17260563	     79.45377551	    126.27504728	     -9.48591193	     -2.08367707	     30.11750855
      2.00500000	     -1.61699287	    -14.53651781	     77.35575953	     -0.05519472	      0.60196120	      0.43776354	     84.47622620	     -2.63798774	     -0.79757976	   -109.93844970	     24.38669077	      5.15098809	     11.87916172	     81.77103896	    -10.89638205	     -6.05071979	   -113.01545656	     20.51910479	      2.60263389	     37.05371386	    -60.31498642	     -0.25643073	     -0.13279812	     14.98397982	     -7.36660699	      4.30923981	     79.43623191	    -36.65776753	     48.13502655	     78.49264579	    146.64098517	      4.80403502	      3.76196750	    -38.37818173	     66.34199144	    -33.89366910	     17.77969011	     79.84830302	    127.23758713	     -8.75765770	     -2.15787514	     30.95232265
      2.00750000	     -1.60655368	    -14.61610666	     77.36673069	     -0.05539594	      0.60415970	      0.43758029	     84.24781191	     -2.59096503	     -0.78463241	   -109.53112636	     24.34870884	      5.15335265	     11.83657793	     81.55327831	    -10.83383497	     -6.05958649	   -112.59101092	     20.48193472	      2.62451999	     37.05681894	    -60.16264601	     -0.22200184	     -0.10647359	     14.97517381	     -7.32905375	      4.31519336	     79.01054173	    -36.96969566	     48.25523394	     78.43829964	    146.64513958	      4.80535868	      3.76754568	    -38.39004344	     65.81546002	    -34.05438110	     17.78960820	     79.79534366	    127.26080391	     -8.74129128	     -2.15242009	     30.97741537
      2.01000000	     -1.59149478	    -14.58612022	     77.37160918	     -0.05555876	      0.60641080	      0.43712685	     83.90498905	     -2.57364380	     -0.78697357	   -109.16559421	     24.34962954	      5.07549755	     11.72095267	     81.22232556	    -10.76947463	     -6.08017622	   -112.23694238	     20.45524576	      2.63134286	     37.06988662	    -60.11713236	     -0.19961914	     -0.12797030	     14.99704101	     -7.29928449	      4.34622098	     78.44779672	    -37.25679466	     48.20876352	     78.49486620	    146.63999065	      4.71932313	      3.81504544	    -38.44333312	     65.04604803	    -34.09185295	     17.38340622	     79.83433242	    127.38028925	     -8.81699128	     -2.12155545	     31.01760249
      2.01250000	     -1.58820435	    -14.67154402	     77.37872612	     -0.05579482	      0.60867956	      0.43697236	     83.67291108	     -2.52105942	     -0.75497927	   -108.73637785	     24.31477376	      5.05724924	     11.67538263	     80.98793162	    -10.71713911	     -6.10126101	   -111.78843863	     20.43805075	      2.64295301	     37.07376205	    -59.96516972	     -0.15515301	     -0.09592074	     15.03549733	     -7.29063746	      4.36846523	     78.03272949	    -37.53906421	     48.31842157	     78.38273920	    146.64331429	      4.75692619	      3.82500953	    -38.43708126	     64.49830371	    -34.25218767	     17.36051045	     79.79710629	    127.46484514	     -8.78282870	     -2.10972359	     31.05747599
      2.01500000	     -1.57309803	    -14.62082149	     77.35255840	     -0.05603598	      0.61095376	      0.43643990	     83.30924781	     -2.49469605	     -0.74915214	   -108.37153128	     24.34021621	      4.91677130	     11.54309432	     80.62071274	    -10.66644677	     -6.14115992	   -111.44350222	     20.45004432	      2.63887741	     37.08951511	    -59.93768502	     -0.12918874	     -0.15591911	     15.12255578	     -7.34036310	      4.46351361	     77.48169225	    -37.74861250	     48.24501386	     78.41619628	    146.64875733	      4.73423737	      3.86782925	    -38.45325499	     63.62479003	    -34.32173140	     16.81466492	     79.89362997	    127.78023335	     -8.81292585	     -2.05433415	     31.13565678
      2.01750000	     -1.57383439	    -14.71834235	     77.35540442	     -0.05626812	      0.61321998	      0.43628518	     83.08594841	     -2.45169916	     -0.72480130	   -107.92789086	     24.29952854	      4.90852822	     11.50165955	     80.41092950	    -10.61748118	     -6.15733075	   -111.00525008	     20.43264649	      2.65562590	     37.09252969	    -59.76597225	     -0.09055232	     -0.13046806	     15.16115458	     -7.33867014	      4.49368967	     77.07909418	    -38.02586976	     48.38148295	     78.28371522	    146.65946802	      4.79072468	      3.87206193	    -38.43704468	     63.08773924	    -34.50096022	     16.82663947	     79.83805935	    127.88059209	     -8.75288723	     -2.04221128	     31.17865628
      2.02000000	     -1.55940760	    -14.70416010	     77.32621300	     -0.05650793	      0.61541534	      0.43582608	     82.75380823	     -2.43535252	     -0.73750371	   -107.54460374	     24.34282579	      4.78620012	     11.36875173	     80.09585049	    -10.57175595	     -6.17876655	   -110.66973064	     20.44814193	      2.67335666	     37.10670684	    -59.69395135	     -0.05698785	     -0.19655194	     15.21723378	     -7.42966220	      4.62688687	     76.53872747	    -38.21106974	     48.32801031	     78.30217791	    146.68072993	      4.78660067	      3.92601295	    -38.43923677	     62.20979038	    -34.61247079	     16.30837462	     79.92928500	    128.21772508	     -8.71932922	     -1.98741757	     31.25577424
